<svg width="60" height="63" viewBox="0 0 60 63" fill="none" xmlns="http://www.w3.org/2000/svg">
<path d="M50.6696 4.39337C47.8193 4.39337 44.9691 4.39337 42.1188 4.38291C40.7934 4.38291 39.9841 3.87035 39.597 2.81385C39.1278 1.54814 40.1483 0.156906 41.6379 0.0209213C41.8725 4.79307e-07 42.0954 0 42.3299 0C46.8927 0 51.4554 0 56.0299 0C57.0152 0 57.9887 2.49395e-07 58.6573 0.79499C58.8919 1.06696 59.0561 1.38077 59.2438 1.67366V16.0044C59.1265 16.1299 58.9857 16.245 58.9036 16.381C58.3758 17.291 57.2146 17.7931 56.0885 17.5316C55.2909 17.3433 54.2939 16.517 54.2939 15.45C54.3174 13.0441 54.2939 10.6382 54.2939 8.23233C54.2939 8.04405 54.2939 7.85576 54.2939 7.53149C54.0476 7.73023 53.8834 7.8453 53.7309 7.97082C47.5378 13.4939 41.3329 19.017 35.1398 24.5506C34.3774 25.2305 33.4742 25.4711 32.4655 25.1573C32.0432 25.0213 31.6562 24.7388 31.3277 24.4459C28.0318 21.5275 24.7593 18.5986 21.475 15.6697C21.3226 15.5337 21.1935 15.3872 20.8651 15.0525C20.7244 15.2826 20.6657 15.4814 20.525 15.6174C15.1881 20.3873 9.85119 25.1468 4.51431 29.9063C3.74016 30.5967 2.837 30.9628 1.75789 30.6699C-0.0953541 30.1678 -0.599718 28.1803 0.807811 26.9251C2.69625 25.2305 4.59641 23.5464 6.48485 21.8622C10.6371 18.1592 14.8127 14.4667 18.9298 10.7428C20.1379 9.65495 21.8035 9.69679 22.9999 10.7637C26.331 13.745 29.6739 16.7157 33.0051 19.6969C33.0989 19.7806 33.1458 19.8957 33.2396 20.0317C33.4156 19.8852 33.5094 19.8225 33.5798 19.7492C39.1865 14.7492 44.8049 9.73863 50.4115 4.73856C50.5053 4.65488 50.5757 4.56073 50.6578 4.46659C50.6813 4.44567 50.7047 4.41429 50.7282 4.39337C50.7047 4.39337 50.6696 4.39337 50.6461 4.39337H50.6696Z" fill="#113E21"/>
<path d="M50.6698 4.39355C50.6698 4.39355 50.7295 4.39355 50.7533 4.39355C50.7295 4.41493 50.7056 4.447 50.6818 4.46837L50.646 4.43631L50.6698 4.39355Z" fill="#113E21"/>
<path d="M7.84445 38.1693C7.84445 36.6557 6.46858 35.4287 4.77135 35.4287C3.07412 35.4287 1.69824 36.6557 1.69824 38.1693V59.7701C1.69824 61.2837 3.07412 62.5107 4.77135 62.5107C6.46858 62.5107 7.84445 61.2837 7.84445 59.7701V38.1693Z" fill="#113E21"/>
<path d="M17.6267 32.102C17.6267 30.5883 16.2508 29.3613 14.5536 29.3613C12.8563 29.3613 11.4805 30.5883 11.4805 32.102V59.822C11.4805 61.3356 12.8563 62.5626 14.5536 62.5626C16.2508 62.5626 17.6267 61.3356 17.6267 59.822V32.102Z" fill="#113E21"/>
<path d="M28.3601 38.1693C28.3601 36.6557 26.9842 35.4287 25.287 35.4287C23.5897 35.4287 22.2139 36.6557 22.2139 38.1693V59.7701C22.2139 61.2837 23.5897 62.5107 25.287 62.5107C26.9842 62.5107 28.3601 61.2837 28.3601 59.7701V38.1693Z" fill="#113E21"/>
<path d="M38.1423 51.7064C38.1423 50.1928 36.7664 48.9658 35.0692 48.9658C33.372 48.9658 31.9961 50.1928 31.9961 51.7064V59.8133C31.9961 61.3269 33.372 62.5539 35.0692 62.5539C36.7664 62.5539 38.1423 61.3269 38.1423 59.8133V51.7064Z" fill="#113E21"/>
<path d="M48.862 54.8222C48.862 53.3086 47.4862 52.0815 45.7889 52.0815C44.0917 52.0815 42.7158 53.3086 42.7158 54.8222V59.8118C42.7158 61.3254 44.0917 62.5524 45.7889 62.5524C47.4862 62.5524 48.862 61.3254 48.862 59.8118V54.8222Z" fill="#113E21"/>
<path d="M59.3484 25.8676C59.3484 24.354 57.9725 23.127 56.2753 23.127C54.578 23.127 53.2021 24.354 53.2021 25.8676V59.822C53.2021 61.3356 54.578 62.5626 56.2753 62.5626C57.9725 62.5626 59.3484 61.3356 59.3484 59.822V25.8676Z" fill="#113E21"/>
</svg>
