<svg width="101" height="72" viewBox="0 0 101 72" fill="none" xmlns="http://www.w3.org/2000/svg">
<g filter="url(#filter0_d_757_4196)">
<path d="M50.2809 25.6899L20.9198 34.1645C20.1262 35.0052 23.3677 38.3407 27.4699 41.9882L16.2661 53.2831L22.1706 59.2356L33.8855 47.4255C37.8263 50.639 41.1215 53.161 41.1215 53.161L50.2675 25.6899H50.2809Z" fill="#113E21"/>
</g>
<path d="M50.2805 25.6896L50.1191 25.1336L20.6101 33.6489L20.5025 33.7573C20.3007 33.9607 20.22 34.2455 20.22 34.4895C20.2335 35.0184 20.489 35.4794 20.8387 36.0217C21.9282 37.6353 24.3088 39.9268 27.0795 42.4082L27.4561 41.9743L27.0526 41.5675L15.4453 53.2691L22.1568 60.0352L34.2752 47.8183L33.8717 47.4115L33.5085 47.859C37.4493 51.0725 40.7446 53.5945 40.758 53.6081L41.3902 54.0827L51.1413 24.8218L50.1057 25.1201L50.2671 25.676L49.7291 25.4997L40.5832 52.9708L41.1212 53.1471L41.4574 52.6861C41.4574 52.6861 40.637 52.0624 39.3189 51.0318C38.0008 50.0013 36.1985 48.5776 34.2348 46.9641L33.8313 46.6386L22.1568 58.4081L17.0459 53.2556L28.2765 41.9336L27.8192 41.5268C25.99 39.8997 24.3222 38.3268 23.1387 37.0387C22.5469 36.4014 22.0761 35.8183 21.7668 35.3573C21.444 34.8963 21.3229 34.5302 21.3364 34.4624L21.2153 34.4353L21.3095 34.5167L21.3498 34.4489L21.2288 34.4217L21.3229 34.5031L20.906 34.1099L21.0674 34.6658L50.4285 26.1913L50.2671 25.6353L50.2805 25.6896Z" fill="#113E21"/>
<path d="M89.3397 67.0864V63.0864H11.2093C10.4426 63.0864 9.77013 62.7881 9.25904 62.2728C8.76139 61.7576 8.45204 61.0932 8.45204 60.3067V11.1679C8.45204 10.395 8.74794 9.71708 9.25904 9.20182C9.77013 8.70013 10.4292 8.38827 11.2093 8.38827H89.3397C90.1064 8.38827 90.7789 8.68657 91.29 9.20182C91.7876 9.71708 92.097 10.3815 92.097 11.1679V60.3067C92.097 61.0796 91.8011 61.7576 91.29 62.2728C90.7789 62.7745 90.1198 63.0864 89.3397 63.0864V71.0999C92.2853 71.0999 94.9752 69.8931 96.8986 67.9406C98.8219 66.0016 100.032 63.2762 100.032 60.3203V11.1815C100.032 8.21199 98.8354 5.50014 96.8986 3.56117C94.9752 1.62219 92.2718 0.401855 89.3397 0.401855H11.2093C8.26374 0.401855 5.57376 1.60863 3.65043 3.56117C1.72709 5.50014 0.516602 8.22555 0.516602 11.1815V60.3203C0.516602 63.2898 1.71364 66.0016 3.65043 67.9406C5.57376 69.8796 8.27719 71.0999 11.2093 71.0999H89.3397V67.0999V67.0864Z" fill="#113E21"/>
<path d="M78.4041 33.2978V17.7724H82.8695V33.2978H78.4041ZM84.4969 17.6232C84.4969 17.2436 84.3759 16.9182 84.1338 16.6877C83.8917 16.4436 83.5689 16.3216 83.1923 16.3216H78.0813C77.7047 16.3216 77.3954 16.4436 77.1533 16.6877C76.9112 16.9317 76.7901 17.2436 76.7901 17.6232V33.4334C76.7901 33.813 76.9112 34.1384 77.1533 34.3689C77.3954 34.613 77.7047 34.735 78.0813 34.735H83.1923C83.5689 34.735 83.8917 34.613 84.1338 34.3689C84.3759 34.1249 84.4969 33.813 84.4969 33.4334V17.6232ZM73.9388 28.7554H72.2979V33.2842H68.236V17.7588H72.2979V21.908H73.9388V17.6232C73.9388 17.2436 73.8177 16.9182 73.5621 16.6877C73.3066 16.4436 72.9973 16.3216 72.6207 16.3216H67.9132C67.5366 16.3216 67.2273 16.4436 66.9852 16.6877C66.7431 16.9317 66.622 17.2436 66.622 17.6232V33.4334C66.622 33.813 66.7431 34.1384 66.9852 34.3689C67.2273 34.613 67.5366 34.735 67.9132 34.735H72.6207C72.9973 34.735 73.32 34.613 73.5621 34.3689C73.8042 34.1249 73.9388 33.813 73.9388 33.4334V28.7554ZM64.08 33.2842H59.6953V26.0978H63.6227V24.6198H59.6953V17.7453H63.9993V16.2944H58.0679V34.7215H64.0665V33.2706L64.08 33.2842Z" fill="#113E21"/>
<defs>
<filter id="filter0_d_757_4196" x="12.2661" y="25.6899" width="42.0146" height="41.5454" filterUnits="userSpaceOnUse" color-interpolation-filters="sRGB">
<feFlood flood-opacity="0" result="BackgroundImageFix"/>
<feColorMatrix in="SourceAlpha" type="matrix" values="0 0 0 0 0 0 0 0 0 0 0 0 0 0 0 0 0 0 127 0" result="hardAlpha"/>
<feOffset dy="4"/>
<feGaussianBlur stdDeviation="2"/>
<feComposite in2="hardAlpha" operator="out"/>
<feColorMatrix type="matrix" values="0 0 0 0 0 0 0 0 0 0 0 0 0 0 0 0 0 0 0.25 0"/>
<feBlend mode="normal" in2="BackgroundImageFix" result="effect1_dropShadow_757_4196"/>
<feBlend mode="normal" in="SourceGraphic" in2="effect1_dropShadow_757_4196" result="shape"/>
</filter>
</defs>
</svg>
