<svg width="77" height="91" viewBox="0 0 77 91" fill="none" xmlns="http://www.w3.org/2000/svg">
<path d="M66.8923 86.6559V82.5937H10.2616C9.96219 82.5937 9.72584 82.4914 9.52099 82.3014C9.31615 82.1115 9.22161 81.8923 9.20585 81.6146V9.54722C9.20585 9.26959 9.31615 9.0504 9.52099 8.86045C9.72584 8.67049 9.96219 8.58282 10.2616 8.5682H66.8923C67.1917 8.5682 67.428 8.67049 67.6328 8.86045C67.8377 9.0504 67.9322 9.26959 67.948 9.54722V81.6C67.948 81.8777 67.8377 82.0968 67.6328 82.2868C67.428 82.4768 67.1917 82.5644 66.8923 82.5791V90.7181C69.5867 90.7181 72.0763 89.6952 73.8411 88.044C75.6059 86.4074 76.7246 84.0987 76.7246 81.6V9.54722C76.7246 7.04853 75.6216 4.7398 73.8411 3.10323C72.0763 1.46667 69.5867 0.429199 66.8923 0.429199H10.2616C7.56712 0.429199 5.07752 1.45205 3.31273 3.10323C1.54795 4.7398 0.429199 7.04853 0.429199 9.54722V81.6C0.429199 84.0987 1.53219 86.4074 3.31273 88.044C5.07752 89.6806 7.56712 90.7181 10.2616 90.7181H66.8923V86.6559Z" fill="#113E21"/>
<path d="M56.6647 16.9707H20.5023C17.9351 16.9707 15.854 18.8974 15.854 21.274C15.854 23.6506 17.9351 25.5773 20.5023 25.5773H56.6647C59.2319 25.5773 61.313 23.6506 61.313 21.274C61.313 18.8974 59.2319 16.9707 56.6647 16.9707Z" fill="#113E21"/>
<path d="M56.6647 35.6597H20.5023C17.9351 35.6597 15.854 37.5863 15.854 39.963C15.854 42.3396 17.9351 44.2663 20.5023 44.2663H56.6647C59.2319 44.2663 61.313 42.3396 61.313 39.963C61.313 37.5863 59.2319 35.6597 56.6647 35.6597Z" fill="#113E21"/>
<path d="M55.4995 67.1338H42.9569C40.3897 67.1338 38.3086 69.0604 38.3086 71.4371C38.3086 73.8137 40.3897 75.7404 42.9569 75.7404H55.4995C58.0667 75.7404 60.1478 73.8137 60.1478 71.4371C60.1478 69.0604 58.0667 67.1338 55.4995 67.1338Z" fill="#113E21"/>
</svg>
