<svg width="68" height="61" viewBox="0 0 68 61" fill="none" xmlns="http://www.w3.org/2000/svg">
<path d="M3.75452 53.1708L6.66233 54.8841L32.4983 7.00474V6.98143V6.96978V6.99309H32.5318H32.554V6.98143H32.5429V6.99309H32.5318V7.0164L60.596 55.1871L63.4481 53.3689L60.5291 55.0589L61.1196 54.7209H60.4511C60.4511 54.8491 60.4846 54.989 60.5291 55.0589L61.1196 54.7209H60.4511H61.0973L60.6294 54.243C60.518 54.3712 60.4511 54.5111 60.4511 54.7209H61.0973L60.6294 54.243L61.1307 54.7559L60.8522 54.0799C60.7631 54.1265 60.6851 54.1848 60.6294 54.243L61.1307 54.7559L60.8522 54.0799L61.1196 54.7092V54.0099C61.0527 54.0099 60.9413 54.0332 60.8522 54.0682L61.1196 54.6976V53.9983H61.0639L61.1085 57.4832V53.9983L6.00501 53.94V54.6277L6.27239 53.9983C6.18326 53.9517 6.07185 53.94 6.00501 53.94V54.6277L6.27239 53.9983L5.99386 54.651L6.5732 54.2663C6.51749 54.1615 6.41722 54.0682 6.27239 53.9983L5.99386 54.651L6.5732 54.2663L6.02729 54.6393H6.67347C6.67347 54.4878 6.6289 54.3712 6.5732 54.2663L6.02729 54.6393H6.67347H5.99386L6.5732 55.0123C6.6289 54.9307 6.67347 54.7675 6.67347 54.6393H5.99386L6.5732 55.0123L6.60662 54.954L6.64004 54.8957L3.73224 53.1824L0.902421 51.3409C0.300807 52.3549 0 53.5321 0 54.6393C0 56.2943 0.612756 57.8328 1.67115 58.9867C2.19478 59.5694 2.84096 60.0473 3.58741 60.397C4.32271 60.735 5.15829 60.9214 6.00501 60.9214L61.1419 60.9797H61.1642L61.1196 57.7046V60.9797H61.1642L61.1196 57.7046V60.9797C61.9663 60.9797 62.7907 60.7932 63.5261 60.4552C64.629 59.9424 65.5314 59.1149 66.1442 58.1242C66.7569 57.1335 67.1135 55.9447 67.1135 54.6976C67.1135 53.6719 66.8684 52.6113 66.3559 51.6556L66.3224 51.5973L38.236 3.36834C37.6009 2.27275 36.6985 1.41027 35.7069 0.83917C34.7043 0.268067 33.6013 0 32.5095 0C31.3842 0 30.2478 0.291379 29.2229 0.897447C28.1979 1.49186 27.2843 2.41261 26.6716 3.56647L0.835576 51.4458L3.74338 53.1591L3.75452 53.1708Z" fill="#113E21"/>
<path d="M33.2219 19.3359H32.3418C30.7297 19.3359 29.4229 20.7031 29.4229 22.3896V34.6391C29.4229 36.3256 30.7297 37.6928 32.3418 37.6928H33.2219C34.834 37.6928 36.1409 36.3256 36.1409 34.6391V22.3896C36.1409 20.7031 34.834 19.3359 33.2219 19.3359Z" fill="#113E21"/>
<path d="M33.2886 41.7607H32.2747C30.4165 41.7607 28.9102 43.3366 28.9102 45.2806V46.3412C28.9102 48.2852 30.4165 49.8611 32.2747 49.8611H33.2886C35.1468 49.8611 36.6532 48.2852 36.6532 46.3412V45.2806C36.6532 43.3366 35.1468 41.7607 33.2886 41.7607Z" fill="#113E21"/>
</svg>
