<svg xmlns="http://www.w3.org/2000/svg" width="71" height="46" viewBox="0 0 71 46" fill="none">
  <g filter="url(#filter0_d_629_4195)">
    <path d="M66 10.4744C65.9823 12.1442 65.108 13.449 63.6597 14.4509C61.9818 15.6082 60.0389 16.3848 58.2109 17.3402C54.6872 19.1809 51.0664 20.8818 47.5957 22.8002C47.216 23.0099 46.9864 22.8468 46.695 22.6681C45.4851 21.8992 44.3723 21.9225 43.4186 22.7147C42.9329 23.1186 42.6944 23.5846 42.7562 24.1904C42.8622 25.2467 42.8357 25.2312 41.7495 25.736C40.7692 26.1943 39.8243 26.6991 38.8528 27.1729C37.2456 27.9495 36.1328 27.6855 35.2055 26.303C34.9494 25.9224 34.6757 25.5418 34.4461 25.1457C34.1635 24.6564 33.8544 24.5399 33.2538 24.8506C29.8892 26.5904 26.498 28.299 23.1068 30.0155C22.8595 30.1398 22.6122 30.2796 22.3473 30.3883C20.9961 30.9863 19.7862 31.662 19.3712 33.0989C19.1592 33.8445 18.4704 34.326 17.6049 34.5746C14.9114 35.3745 12.2267 36.1978 9.51554 36.9745C8.49995 37.2696 8.25267 37.1687 7.73163 36.3842C6.89267 35.126 6.08903 33.8367 5.25006 32.5785C4.86149 31.996 4.91448 31.5455 5.4885 31.064C7.08695 29.7048 8.81787 28.4854 10.4693 27.1806C10.7784 26.9399 11.0963 26.7146 11.3789 26.4583C12.4475 25.503 13.7104 25.138 15.2028 25.4719C15.9005 25.6273 16.5099 25.4952 17.128 25.169C21.1639 23.0953 25.2174 21.0294 29.2798 18.9867C29.898 18.676 30.0569 18.4197 29.6242 17.8683C29.2533 17.4023 28.9884 16.8742 28.7146 16.3538C28.1671 15.2897 28.4232 14.3422 29.5624 13.6976C30.8783 12.9519 32.2648 12.2995 33.6159 11.6005C33.9074 11.4452 34.1016 11.5695 34.3136 11.7403C35.1261 12.3772 36.1063 12.517 36.963 12.1287C37.9432 11.6937 38.376 11.0258 38.1817 9.96952C38.0845 9.42584 38.3141 9.23944 38.791 8.99867C43.1183 6.81622 47.4368 4.60269 51.7552 2.40471C53.1064 1.71347 54.4399 0.975624 56.0119 0.696021C58.2727 0.284384 60.1626 0.882423 61.5402 2.45131C63.1387 4.26872 64.3927 6.28031 65.4878 8.3618C65.8322 9.02197 66.0265 9.72875 65.9735 10.4666L66 10.4744ZM63.2711 10.2491C63.2447 10.1326 63.227 9.87632 63.1299 9.64331C62.2909 7.59289 61.0104 5.74441 59.5267 4.02019C58.6878 3.04158 57.4161 2.80081 56.056 3.16585C55.7116 3.25905 55.3584 3.36001 55.0493 3.51535C50.51 5.80654 45.9796 8.11326 41.4404 10.4045C40.9723 10.6452 40.6986 10.9559 40.5838 11.4374C40.0892 13.5733 36.7069 15.4295 34.2341 14.5597C33.4658 14.2878 31.9468 14.9868 31.6289 15.6548C31.4964 15.9266 31.6024 16.1596 31.7349 16.3771C32.0175 16.8431 32.3266 17.3013 32.6357 17.7596C34.0663 19.9265 35.4881 22.0934 36.9276 24.2526C37.0954 24.5089 37.2632 24.7652 37.6695 24.7885C38.4908 24.8273 39.9479 23.9574 40.1069 23.2274C40.5396 21.1847 43.9131 19.0877 46.5625 20.144C46.9246 20.2838 47.2337 20.2372 47.5869 20.0585C50.7926 18.4042 54.0072 16.7732 57.2129 15.1266C58.5641 14.4354 59.933 13.7597 61.2665 13.0374C62.3792 12.4316 63.1563 11.5928 63.2711 10.2491ZM14.7083 27.8641C14.3639 27.8952 13.993 27.8097 13.6662 28.0272C11.8558 29.2621 10.0454 30.497 8.24384 31.7319C7.96125 31.9261 7.88176 32.128 8.12021 32.4309C8.49995 32.9202 8.8532 33.4329 9.12697 33.9688C9.4184 34.5357 9.78048 34.66 10.4252 34.427C12.3592 33.7125 14.3109 33.0368 16.2538 32.3533C16.6865 32.1979 17.0132 31.9494 17.1192 31.5611C17.4371 30.365 18.4527 29.7592 19.5655 29.2C23.4777 27.235 27.3811 25.2467 31.2845 23.2584C32.2618 22.7613 32.4502 22.0882 31.8497 21.2391C31.8144 21.1847 31.7614 21.1381 31.7349 21.076C31.5053 20.5944 31.1697 20.61 30.7016 20.8507C26.6569 22.9167 22.5946 24.9516 18.5675 27.0486C17.3488 27.6777 16.1919 28.299 14.6995 27.8641H14.7083Z" fill="#113E21"/>
    <path d="M66 10.4744C65.9823 12.1442 65.108 13.449 63.6597 14.4509C61.9818 15.6082 60.0389 16.3848 58.2109 17.3402C54.6872 19.1809 51.0664 20.8818 47.5957 22.8002C47.216 23.0099 46.9864 22.8468 46.695 22.6681C45.4851 21.8992 44.3723 21.9225 43.4186 22.7147C42.9329 23.1186 42.6944 23.5846 42.7562 24.1904C42.8622 25.2467 42.8357 25.2312 41.7495 25.736C40.7692 26.1943 39.8243 26.6991 38.8528 27.1729C37.2456 27.9495 36.1328 27.6855 35.2055 26.303C34.9494 25.9224 34.6757 25.5418 34.4461 25.1457C34.1635 24.6564 33.8544 24.5399 33.2538 24.8506C29.8892 26.5904 26.498 28.299 23.1068 30.0155C22.8595 30.1398 22.6122 30.2796 22.3473 30.3883C20.9961 30.9863 19.7862 31.662 19.3712 33.0989C19.1592 33.8445 18.4704 34.326 17.6049 34.5746C14.9114 35.3745 12.2267 36.1978 9.51554 36.9745C8.49995 37.2696 8.25267 37.1687 7.73163 36.3842C6.89267 35.126 6.08903 33.8367 5.25006 32.5785C4.86149 31.996 4.91448 31.5455 5.4885 31.064C7.08695 29.7048 8.81787 28.4854 10.4693 27.1806C10.7784 26.9399 11.0963 26.7146 11.3789 26.4583C12.4475 25.503 13.7104 25.138 15.2028 25.4719C15.9005 25.6273 16.5099 25.4952 17.128 25.169C21.1639 23.0953 25.2174 21.0294 29.2798 18.9867C29.898 18.676 30.0569 18.4197 29.6242 17.8683C29.2533 17.4023 28.9884 16.8742 28.7146 16.3538C28.1671 15.2897 28.4232 14.3422 29.5624 13.6976C30.8783 12.9519 32.2648 12.2995 33.6159 11.6005C33.9074 11.4452 34.1016 11.5695 34.3136 11.7403C35.1261 12.3772 36.1063 12.517 36.963 12.1287C37.9432 11.6937 38.376 11.0258 38.1817 9.96952C38.0845 9.42584 38.3141 9.23944 38.791 8.99867C43.1183 6.81622 47.4368 4.60269 51.7552 2.40471C53.1064 1.71347 54.4399 0.975624 56.0119 0.696021C58.2727 0.284384 60.1626 0.882423 61.5402 2.45131C63.1387 4.26872 64.3927 6.28031 65.4878 8.3618C65.8322 9.02197 66.0265 9.72875 65.9735 10.4666L66 10.4744ZM63.2711 10.2491C63.2447 10.1326 63.227 9.87632 63.1299 9.64331C62.2909 7.59289 61.0104 5.74441 59.5267 4.02019C58.6878 3.04158 57.4161 2.80081 56.056 3.16585C55.7116 3.25905 55.3584 3.36001 55.0493 3.51535C50.51 5.80654 45.9796 8.11326 41.4404 10.4045C40.9723 10.6452 40.6986 10.9559 40.5838 11.4374C40.0892 13.5733 36.7069 15.4295 34.2341 14.5597C33.4658 14.2878 31.9468 14.9868 31.6289 15.6548C31.4964 15.9266 31.6024 16.1596 31.7349 16.3771C32.0175 16.8431 32.3266 17.3013 32.6357 17.7596C34.0663 19.9265 35.4881 22.0934 36.9276 24.2526C37.0954 24.5089 37.2632 24.7652 37.6695 24.7885C38.4908 24.8273 39.9479 23.9574 40.1069 23.2274C40.5396 21.1847 43.9131 19.0877 46.5625 20.144C46.9246 20.2838 47.2337 20.2372 47.5869 20.0585C50.7926 18.4042 54.0072 16.7732 57.2129 15.1266C58.5641 14.4354 59.933 13.7597 61.2665 13.0374C62.3792 12.4316 63.1563 11.5928 63.2711 10.2491ZM14.7083 27.8641C14.3639 27.8952 13.993 27.8097 13.6662 28.0272C11.8558 29.2621 10.0454 30.497 8.24384 31.7319C7.96125 31.9261 7.88176 32.128 8.12021 32.4309C8.49995 32.9202 8.8532 33.4329 9.12697 33.9688C9.4184 34.5357 9.78048 34.66 10.4252 34.427C12.3592 33.7125 14.3109 33.0368 16.2538 32.3533C16.6865 32.1979 17.0132 31.9494 17.1192 31.5611C17.4371 30.365 18.4527 29.7592 19.5655 29.2C23.4777 27.235 27.3811 25.2467 31.2845 23.2584C32.2618 22.7613 32.4502 22.0882 31.8497 21.2391C31.8144 21.1847 31.7614 21.1381 31.7349 21.076C31.5053 20.5944 31.1697 20.61 30.7016 20.8507C26.6569 22.9167 22.5946 24.9516 18.5675 27.0486C17.3488 27.6777 16.1919 28.299 14.6995 27.8641H14.7083Z" stroke="#113E21" stroke-miterlimit="10"/>
  </g>
  <defs>
    <filter id="filter0_d_629_4195" x="0.5" y="0.0698242" width="70.0039" height="45.5566" filterUnits="userSpaceOnUse" color-interpolation-filters="sRGB">
      <feFlood flood-opacity="0" result="BackgroundImageFix"/>
      <feColorMatrix in="SourceAlpha" type="matrix" values="0 0 0 0 0 0 0 0 0 0 0 0 0 0 0 0 0 0 127 0" result="hardAlpha"/>
      <feOffset dy="4"/>
      <feGaussianBlur stdDeviation="2"/>
      <feComposite in2="hardAlpha" operator="out"/>
      <feColorMatrix type="matrix" values="0 0 0 0 0 0 0 0 0 0 0 0 0 0 0 0 0 0 0.25 0"/>
      <feBlend mode="normal" in2="BackgroundImageFix" result="effect1_dropShadow_629_4195"/>
      <feBlend mode="normal" in="SourceGraphic" in2="effect1_dropShadow_629_4195" result="shape"/>
    </filter>
  </defs>
</svg>