<svg width="56" height="21" viewBox="0 0 56 21" fill="none" xmlns="http://www.w3.org/2000/svg">
<g id="BAL bialy napis 1" clip-path="url(#clip0_629_3339)">
<path id="Vector" d="M13.9292 10.2311C15.7498 9.49459 16.732 8.10753 16.732 5.8084C16.732 2.56552 14.7954 0.354493 10.2005 0.354493H1.61823C0.520088 0.353804 0 0.883844 0 1.97628V3.81627L10.3165 3.77291C12.3963 3.77291 13.2932 4.80408 13.2932 6.36735C13.2932 7.93062 12.3109 8.75459 10.288 8.75459H3.43772L3.44046 8.75804L3.42132 8.75459H0.00109377V18.6312C0.00109377 19.7216 0.521182 20.2537 1.61933 20.2537H10.2897C14.8846 20.2537 16.8211 17.9539 16.8211 14.7709C16.8211 12.4711 15.7804 10.9966 13.9308 10.2311H13.9297H13.9292ZM10.3744 16.8064H3.72703C3.49569 16.8064 3.35186 16.7183 3.35186 16.4815V11.6471H10.3744C12.3678 11.6471 13.3796 12.531 13.3796 14.2126C13.3796 15.8943 12.4252 16.8071 10.3744 16.8071V16.8064Z" fill="#7DAD51"/>
<path id="Vector_2" d="M29.2749 0C27.223 0 25.8935 0.707638 25.1705 2.56553L18.3208 20.2551H22.0774L28.2615 4.24652C28.4639 3.7743 28.7816 3.56917 29.2437 3.56917C29.7059 3.56917 30.0236 3.77567 30.1981 4.24652L36.1225 20.2551H39.9086L33.3197 2.56553C32.6262 0.708326 31.2968 0 29.2738 0L29.2749 0Z" fill="#7DAD51"/>
<path id="Vector_3" d="M48.429 16.7754C45.3653 16.7754 44.4405 15.272 44.4405 13.3549V0.35376H41.0312V13.3852C41.0312 17.3646 43.0542 20.255 48.2266 20.255H56.0001V16.7754H48.429Z" fill="#7DAD51"/>
</g>
<defs>
<clipPath id="clip0_629_3339">
<rect width="56" height="20.2551" fill="white"/>
</clipPath>
</defs>
</svg>
